<svg xmlns="http://www.w3.org/2000/svg" xmlns:xlink="http://www.w3.org/1999/xlink" width="130" zoomAndPan="magnify" viewBox="0 0 97.5 30.000001" height="40" preserveAspectRatio="xMidYMid meet" version="1.0"><defs><g/><clipPath id="0d9ffcd180"><path d="M 1.851562 5.441406 L 38.75 5.441406 L 38.75 23.34375 L 1.851562 23.34375 Z M 1.851562 5.441406 " clip-rule="nonzero"/></clipPath><clipPath id="ee2dffc3ba"><path d="M 2.84375 13.871094 L 38.71875 13.871094 L 38.71875 23.34375 L 2.84375 23.34375 Z M 2.84375 13.871094 " clip-rule="nonzero"/></clipPath><clipPath id="951ff6b1bc"><path d="M 3.140625 16.859375 L 38.519531 16.859375 L 38.519531 23.34375 L 3.140625 23.34375 Z M 3.140625 16.859375 " clip-rule="nonzero"/></clipPath><clipPath id="c1ae6f0423"><path d="M 3.570312 18.683594 L 37.691406 18.683594 L 37.691406 23.34375 L 3.570312 23.34375 Z M 3.570312 18.683594 " clip-rule="nonzero"/></clipPath><clipPath id="d9ec3eb84c"><path d="M 17 2.917969 L 34 2.917969 L 34 16 L 17 16 Z M 17 2.917969 " clip-rule="nonzero"/></clipPath><clipPath id="18c96960db"><path d="M 1.332031 12 L 6 12 L 6 15 L 1.332031 15 Z M 1.332031 12 " clip-rule="nonzero"/></clipPath><clipPath id="5a2a676cb7"><path d="M 31.9375 9.753906 L 39.964844 9.753906 L 39.964844 12.511719 L 31.9375 12.511719 Z M 31.9375 9.753906 " clip-rule="nonzero"/></clipPath><clipPath id="0cb9f263c9"><path d="M 87 9 L 95.683594 9 L 95.683594 20 L 87 20 Z M 87 9 " clip-rule="nonzero"/></clipPath></defs><g clip-path="url(#0d9ffcd180)"><path fill="#74dbf7" d="M 37.339844 20.972656 C 38.308594 19.453125 38.804688 17.800781 38.707031 16.09375 C 38.347656 9.679688 29.816406 4.945312 19.648438 5.519531 C 9.484375 6.09375 1.535156 11.757812 1.894531 18.175781 C 2 20.078125 2.832031 21.832031 4.207031 23.34375 C 7.484375 22.699219 18.808594 20.792969 37.339844 20.972656 " fill-opacity="1" fill-rule="nonzero"/></g><path fill="#ffe4dc" d="M 34.4375 16.871094 C 32.933594 17.191406 31.25 17.847656 29.699219 17.878906 C 29.046875 17.890625 28.402344 17.660156 28.433594 16.894531 C 28.480469 15.765625 30.101562 14.90625 28.84375 13.828125 C 27.351562 12.546875 24.4375 12.878906 22.625 13.015625 C 19.148438 13.273438 15.609375 14.074219 12.335938 15.261719 C 10.316406 15.992188 8.347656 16.914062 6.480469 17.980469 C 5.101562 18.769531 3.582031 19.761719 2.46875 20.65625 C 2.78125 21.40625 3.207031 22.121094 3.742188 22.796875 C 10.09375 19.589844 17.21875 19.050781 24.238281 19.234375 C 28.722656 19.347656 33.359375 19.429688 37.914062 19.9375 C 38.488281 18.730469 38.773438 17.460938 38.710938 16.15625 C 37.277344 16.308594 35.855469 16.566406 34.4375 16.871094 " fill-opacity="1" fill-rule="nonzero"/><path fill="#ffe4dc" d="M 17.667969 18.039062 C 19.832031 17.863281 22 17.78125 24.171875 17.808594 C 25.328125 17.824219 26.484375 17.871094 27.640625 17.953125 C 27.839844 16.8125 27.835938 15.617188 27.558594 14.378906 C 26.851562 11.234375 24.308594 9.136719 21.257812 8.949219 C 18.34375 8.773438 15.277344 10.394531 14.21875 13.375 C 13.683594 14.878906 13.671875 16.636719 14.085938 18.273438 C 15.296875 18.144531 16.535156 18.132812 17.667969 18.039062 " fill-opacity="1" fill-rule="nonzero"/><g clip-path="url(#ee2dffc3ba)"><path fill="#ffb4b4" d="M 32.015625 17.988281 C 30.941406 18.238281 26.582031 19.078125 27.996094 16.609375 C 28.363281 15.964844 29.328125 15.152344 28.164062 14.578125 C 27.820312 14.40625 25.515625 13.980469 23.714844 13.902344 C 20.824219 13.773438 17.949219 14.199219 15.199219 15.054688 C 12.691406 15.832031 10.195312 16.816406 7.898438 18.089844 C 6.144531 19.058594 4.246094 20.386719 2.847656 21.449219 C 3.210938 22.113281 3.664062 22.746094 4.207031 23.34375 C 7.484375 22.699219 18.808594 20.792969 37.339844 20.972656 C 38.175781 19.660156 38.65625 18.25 38.714844 16.789062 C 36.503906 16.996094 34.296875 17.460938 32.015625 17.988281 " fill-opacity="1" fill-rule="nonzero"/></g><g clip-path="url(#951ff6b1bc)"><path fill="#ff86c3" d="M 32.609375 18.472656 C 30.015625 18.722656 27.550781 19.289062 25.015625 19.832031 C 23.363281 20.1875 21.1875 20.707031 19.5625 19.988281 C 18.75 19.628906 18.601562 19.152344 18.746094 18.335938 C 18.78125 18.125 19.027344 17.75 18.953125 17.535156 C 18.738281 16.914062 17.601562 16.90625 17.09375 16.878906 C 15.824219 16.808594 14.535156 17.0625 13.308594 17.386719 C 11.023438 18 8.730469 18.925781 6.625 20.011719 C 5.484375 20.601562 4.414062 21.21875 3.164062 21.980469 C 3.464844 22.453125 3.808594 22.910156 4.207031 23.34375 C 7.484375 22.699219 18.808594 20.792969 37.339844 20.972656 C 37.882812 20.121094 38.269531 19.226562 38.496094 18.304688 C 36.539062 18.210938 34.566406 18.285156 32.609375 18.472656 " fill-opacity="1" fill-rule="nonzero"/></g><g clip-path="url(#c1ae6f0423)"><path fill="#007587" d="M 35.625 20.441406 C 34.480469 20.246094 34.335938 19.214844 33.453125 19.027344 C 32.40625 18.804688 30.792969 19.261719 29.789062 19.445312 C 28.523438 19.675781 27.265625 19.949219 25.992188 20.160156 C 23.742188 20.523438 21.476562 20.75 19.199219 20.792969 C 18.082031 20.816406 15.75 21.195312 14.9375 20.148438 C 14.566406 19.671875 15.035156 19.148438 14.21875 18.8125 C 13.585938 18.546875 12.617188 18.84375 12 19.003906 C 9.039062 19.789062 6.261719 21.191406 3.578125 22.570312 C 3.773438 22.835938 3.976562 23.09375 4.207031 23.34375 C 7.484375 22.699219 18.808594 20.792969 37.339844 20.972656 C 37.457031 20.792969 37.558594 20.609375 37.660156 20.425781 C 36.976562 20.496094 36.273438 20.550781 35.625 20.441406 " fill-opacity="1" fill-rule="nonzero"/></g><g clip-path="url(#d9ec3eb84c)"><path fill="#007587" d="M 24.839844 10.390625 C 24.839844 10.390625 27.378906 12.191406 26.128906 15.195312 C 26.128906 15.195312 28.933594 12.402344 25.492188 9.957031 C 25.492188 9.957031 30.222656 9.457031 30.304688 15.972656 C 30.304688 15.972656 32.269531 12.496094 30.378906 10.199219 C 28.488281 7.902344 25.59375 9.285156 25.59375 9.285156 C 25.59375 9.285156 29.617188 5.472656 33.050781 8.386719 C 33.050781 8.386719 32.417969 5.390625 29.25 5.757812 C 26.078125 6.125 25.273438 8.839844 25.273438 8.839844 C 25.273438 8.839844 27.605469 6.371094 25.992188 2.917969 C 25.992188 2.917969 25.980469 7.171875 24.753906 9.359375 C 24.753906 9.359375 25.46875 4.476562 22.148438 4.191406 C 18.828125 3.910156 18.398438 6.59375 18.398438 6.59375 C 18.398438 6.59375 20.136719 4.933594 22.214844 6.078125 C 24.289062 7.222656 24.316406 9.773438 24.316406 9.773438 C 24.316406 9.773438 22.691406 7.265625 20.050781 8.34375 C 17.414062 9.421875 18.042969 12.390625 18.042969 12.390625 C 18.042969 12.390625 19.664062 8.1875 23.992188 10.367188 C 23.992188 10.367188 21.503906 9.921875 20.355469 11.910156 L 24.839844 10.390625 " fill-opacity="1" fill-rule="nonzero"/></g><path fill="#007587" d="M 24.320312 10.183594 C 24.320312 10.183594 25.105469 15.761719 14.890625 21.867188 L 17.976562 21.59375 C 17.976562 21.59375 24.402344 16.828125 25.191406 10.109375 L 24.320312 10.183594 " fill-opacity="1" fill-rule="nonzero"/><path fill="#007587" d="M 13.816406 8.898438 C 13.816406 8.898438 16.414062 9.226562 16.53125 11.351562 C 16.53125 11.351562 17.753906 7.765625 14.289062 8.273438 C 14.289062 8.273438 17.277344 6.433594 18.851562 9.898438 C 18.851562 9.898438 19.390625 6.316406 16.589844 6.304688 C 14.34375 6.296875 13.785156 8.222656 13.785156 8.222656 C 13.785156 8.222656 16.449219 4.367188 11.847656 4.128906 C 11.847656 4.128906 14.484375 5.542969 13.410156 8.621094 C 13.410156 8.621094 13.667969 6.097656 11.976562 5.308594 C 10.289062 4.523438 8.640625 6.269531 8.640625 6.269531 C 8.640625 6.269531 11.789062 5.5625 13.105469 8.578125 C 13.105469 8.578125 12.285156 8.097656 10.800781 9.046875 C 9.3125 9.996094 9.847656 11.410156 9.847656 11.410156 C 9.847656 11.410156 10.800781 9.046875 13.378906 8.957031 C 13.378906 8.957031 11.710938 9.503906 11.109375 11.046875 L 13.816406 8.898438 " fill-opacity="1" fill-rule="nonzero"/><path fill="#007587" d="M 13.402344 8.757812 C 13.378906 8.957031 17.550781 15.183594 14.484375 21.90625 L 17.273438 21.652344 C 17.273438 21.652344 17.003906 13.332031 13.859375 8.714844 L 13.402344 8.757812 " fill-opacity="1" fill-rule="nonzero"/><path fill="#a6ecff" d="M 11.804688 13.5625 C 11.378906 14.054688 8.042969 15.570312 8.808594 14.460938 C 9.335938 13.699219 5.796875 15.394531 4.734375 15.117188 C 3.675781 14.839844 3.945312 13.652344 5.769531 13.628906 C 5.769531 13.628906 5.714844 12.769531 6.9375 12.410156 C 7.914062 12.125 8.394531 12.941406 8.394531 12.941406 C 8.394531 12.941406 9.140625 12 10.074219 12.644531 C 11.21875 12.601562 12.425781 12.855469 11.804688 13.5625 " fill-opacity="1" fill-rule="nonzero"/><g clip-path="url(#18c96960db)"><path fill="#a6ecff" d="M 5.523438 12.488281 C 5.523438 12.488281 5.289062 12.910156 5.3125 13.285156 C 5.3125 13.285156 3.554688 13.539062 3.640625 14.492188 C 3.640625 14.492188 1.648438 15.183594 1.503906 14.476562 C 1.363281 13.773438 2.148438 13.5625 2.148438 13.5625 C 2.148438 13.5625 1.988281 12.199219 3.65625 12.632812 C 3.65625 12.632812 4.277344 12.105469 5.523438 12.488281 " fill-opacity="1" fill-rule="nonzero"/></g><g clip-path="url(#5a2a676cb7)"><path fill="#a6ecff" d="M 39.402344 10.371094 C 39.707031 10.652344 40.414062 11.390625 39.546875 11.992188 C 38.679688 12.589844 36.855469 11.402344 36.503906 11.671875 C 36.152344 11.945312 37.398438 11.90625 36.941406 12.351562 C 36.480469 12.792969 34.445312 12.019531 33.855469 12.234375 C 33.269531 12.449219 32.046875 12.382812 31.949219 11.742188 C 31.847656 11.101562 32.898438 10.6875 33.421875 10.917969 C 33.421875 10.917969 34.007812 9.390625 35.988281 10.066406 C 35.988281 10.066406 36.628906 9.347656 37.417969 10.195312 C 37.417969 10.195312 38.746094 9.769531 39.402344 10.371094 " fill-opacity="1" fill-rule="nonzero"/></g><g fill="#0f7586" fill-opacity="1"><g transform="translate(44.941488, 19.046537)"><g><path d="M 1.613281 -1.613281 L 1.613281 -3.929688 L 2.945312 -3.929688 C 4.039062 -3.929688 4.449219 -3.273438 4.546875 -3.019531 L 4.65625 -3.019531 C 4.65625 -3.78125 4.65625 -4.546875 4.65625 -5.3125 L 4.546875 -5.3125 C 4.449219 -5.054688 4.039062 -4.402344 2.945312 -4.402344 L 1.613281 -4.402344 L 1.613281 -8.621094 L 4.351562 -8.621094 C 5.445312 -8.621094 5.84375 -7.964844 5.953125 -7.710938 L 6.050781 -7.710938 L 5.964844 -9.09375 L 0 -9.09375 C 0.167969 -8.632812 0.21875 -8.097656 0.21875 -7.480469 C 0.21875 -6.488281 0.21875 -2.605469 0.21875 -1.613281 C 0.21875 -0.996094 0.167969 -0.460938 0 0 L 1.832031 0 C 1.660156 -0.460938 1.613281 -0.996094 1.613281 -1.613281 Z M 1.613281 -1.613281 "/></g></g></g><g fill="#0f7586" fill-opacity="1"><g transform="translate(52.017845, 19.046537)"><g><path d="M 1.613281 -7.480469 C 1.613281 -8.097656 1.660156 -8.632812 1.832031 -9.09375 L 0 -9.09375 C 0.167969 -8.632812 0.21875 -8.097656 0.21875 -7.480469 C 0.21875 -6.488281 0.21875 -2.605469 0.21875 -1.613281 C 0.21875 -0.996094 0.167969 -0.460938 0 0 L 6.015625 0 L 6.097656 -1.382812 L 5.988281 -1.382812 C 5.894531 -1.128906 5.480469 -0.472656 4.402344 -0.472656 L 1.613281 -0.472656 Z M 1.613281 -7.480469 "/></g></g></g><g fill="#0f7586" fill-opacity="1"><g transform="translate(59.14267, 19.046537)"><g><path d="M 4.921875 -5.03125 L 6.875 -7.421875 C 7.421875 -8.085938 7.785156 -8.5 8.449219 -9.09375 L 7.382812 -9.09375 C 7.179688 -8.65625 6.898438 -8.246094 6.644531 -7.882812 L 4.546875 -5.3125 L 2.679688 -7.988281 C 2.425781 -8.355469 2.230469 -8.65625 2.035156 -9.09375 L 0 -9.09375 C 0.351562 -8.765625 0.847656 -8.160156 1.128906 -7.761719 L 3.515625 -4.328125 L 3.515625 -1.613281 C 3.515625 -0.996094 3.480469 -0.460938 3.308594 0 L 5.140625 0 C 4.972656 -0.460938 4.921875 -0.996094 4.921875 -1.613281 Z M 4.921875 -5.03125 "/></g></g></g><g fill="#0f7586" fill-opacity="1"><g transform="translate(68.618203, 19.046537)"><g><path d="M 0 0 C 1.199219 0 2.402344 0 3.601562 0 C 6.109375 0 8.367188 -1.5625 8.367188 -4.546875 C 8.367188 -7.53125 6.109375 -9.09375 3.601562 -9.09375 C 2.402344 -9.09375 1.199219 -9.09375 0 -9.09375 C 0.167969 -8.632812 0.21875 -8.097656 0.21875 -7.480469 C 0.21875 -6.488281 0.21875 -2.605469 0.21875 -1.613281 C 0.21875 -0.996094 0.167969 -0.460938 0 0 Z M 1.613281 -8.621094 L 3.601562 -8.621094 C 5.324219 -8.621094 6.933594 -7.054688 6.933594 -4.546875 C 6.933594 -2.035156 5.324219 -0.472656 3.601562 -0.472656 L 1.613281 -0.472656 Z M 1.613281 -8.621094 "/></g></g></g><g fill="#0f7586" fill-opacity="1"><g transform="translate(78.008924, 19.046537)"><g><path d="M 4.960938 -9.09375 L 3.457031 -9.09375 L 0.75 -1.601562 C 0.558594 -1.066406 0.265625 -0.449219 0 0 L 1.589844 0 C 1.199219 -0.65625 1.089844 -1.152344 1.25 -1.601562 C 1.46875 -2.195312 1.683594 -2.679688 2.253906 -3.007812 C 3.09375 -3.503906 4.390625 -3.492188 5.238281 -2.96875 C 5.734375 -2.65625 5.964844 -2.195312 6.183594 -1.578125 C 6.378906 -1.054688 6.582031 -0.425781 6.582031 0 L 8.425781 0 C 8.160156 -0.449219 7.855469 -1.066406 7.664062 -1.601562 Z M 5.554688 -3.335938 C 4.484375 -4.011719 2.933594 -4.011719 1.878906 -3.335938 L 3.710938 -8.390625 Z M 5.554688 -3.335938 "/></g></g></g><g clip-path="url(#0cb9f263c9)"><g fill="#0f7586" fill-opacity="1"><g transform="translate(87.435989, 19.046537)"><g><path d="M 4.921875 -5.03125 L 6.875 -7.421875 C 7.421875 -8.085938 7.785156 -8.5 8.449219 -9.09375 L 7.382812 -9.09375 C 7.179688 -8.65625 6.898438 -8.246094 6.644531 -7.882812 L 4.546875 -5.3125 L 2.679688 -7.988281 C 2.425781 -8.355469 2.230469 -8.65625 2.035156 -9.09375 L 0 -9.09375 C 0.351562 -8.765625 0.847656 -8.160156 1.128906 -7.761719 L 3.515625 -4.328125 L 3.515625 -1.613281 C 3.515625 -0.996094 3.480469 -0.460938 3.308594 0 L 5.140625 0 C 4.972656 -0.460938 4.921875 -0.996094 4.921875 -1.613281 Z M 4.921875 -5.03125 "/></g></g></g></g></svg>